<svg width="1060" height="482" viewBox="0 0 1060 482" fill="none" xmlns="http://www.w3.org/2000/svg">
<mask id="path-1-inside-1_377_586" fill="white">
<path fill-rule="evenodd" clip-rule="evenodd" d="M1060 14C1060 6.26801 1053.73 0 1046 0H294C286.268 0 280 6.26801 280 14V346C280 353.732 273.732 360 266 360H14C6.26801 360 0 366.268 0 374V468C0 475.732 6.268 482 14 482H864C871.732 482 878 475.732 878 468V410C878 402.268 884.268 396 892 396H1046C1053.73 396 1060 389.732 1060 382V14Z"/>
</mask>
<path d="M294 1H1046V-1H294V1ZM281 346V14H279V346H281ZM14 361H266V359H14V361ZM1 468V374H-1V468H1ZM864 481H14V483H864V481ZM877 410V468H879V410H877ZM1046 395H892V397H1046V395ZM1059 14V382H1061V14H1059ZM1046 397C1054.28 397 1061 390.284 1061 382H1059C1059 389.18 1053.18 395 1046 395V397ZM879 410C879 402.82 884.82 397 892 397V395C883.716 395 877 401.716 877 410H879ZM864 483C872.284 483 879 476.284 879 468H877C877 475.18 871.18 481 864 481V483ZM-1 468C-1 476.284 5.71571 483 14 483V481C6.82029 481 1 475.18 1 468H-1ZM14 359C5.71573 359 -1 365.716 -1 374H1C1 366.82 6.8203 361 14 361V359ZM279 346C279 353.18 273.18 359 266 359V361C274.284 361 281 354.284 281 346H279ZM1046 1C1053.18 1 1059 6.8203 1059 14H1061C1061 5.71573 1054.28 -1 1046 -1V1ZM294 -1C285.716 -1 279 5.71572 279 14H281C281 6.82029 286.82 1 294 1V-1Z" fill="#232323" mask="url(#path-1-inside-1_377_586)"/>
</svg>
